<svg width="32" height="33" viewBox="0 0 32 33" fill="none" xmlns="http://www.w3.org/2000/svg">
<path d="M15.9944 32.4999C15.8891 32.4999 15.7824 32.4746 15.6864 32.424L0.366655 24.4255C0.146697 24.3108 0.00805664 24.0829 0.00805664 23.8349V8.83775C0.00805664 8.60713 0.128034 8.3925 0.323997 8.27119C0.51996 8.14988 0.76658 8.13922 0.971874 8.24186L16.2916 15.9071C16.5169 16.0204 16.6596 16.251 16.6596 16.503V31.8334C16.6596 32.0667 16.5383 32.2827 16.3383 32.404C16.2343 32.4679 16.1143 32.4999 15.9944 32.4999ZM1.34114 23.431L15.3278 30.7336V16.9149L1.34114 9.91621V23.431Z" fill="#1B5E37"/>
<path d="M16.0154 32.5C15.8954 32.5 15.7755 32.468 15.6701 32.404C15.4715 32.2827 15.3489 32.0667 15.3489 31.8334V16.503C15.3489 16.251 15.4915 16.0204 15.7168 15.9071L31.0366 8.24188C31.2405 8.1379 31.4885 8.14856 31.6845 8.27121C31.8817 8.39252 32.0017 8.60714 32.0017 8.83777V23.8349C32.0017 24.0829 31.8631 24.3108 31.6431 24.4255L16.3234 32.424C16.2274 32.4746 16.1207 32.5 16.0154 32.5ZM16.682 16.9149V30.7336L30.6686 23.431V9.91623L16.682 16.9149ZM31.3352 23.8349H31.3485H31.3352Z" fill="#1B5E37"/>
<path d="M0.674518 9.50447C0.429231 9.50447 0.194609 9.36983 0.0772975 9.13654C-0.0880046 8.80727 0.0466366 8.40734 0.375908 8.24204L15.717 0.576823C15.905 0.483507 16.1263 0.483507 16.3129 0.576823L31.6327 8.24204C31.9619 8.40734 32.0952 8.80727 31.9313 9.13654C31.766 9.46581 31.3674 9.59778 31.0368 9.43515L16.0156 1.9179L0.973128 9.43381C0.877146 9.4818 0.775832 9.50447 0.674518 9.50447Z" fill="#1B5E37"/>
<path d="M24.0036 20.5023C23.6357 20.5023 23.3371 20.2037 23.3371 19.8358V12.9158L8.38522 5.43452C8.05595 5.27055 7.92264 4.86929 8.08795 4.54002C8.25325 4.21075 8.65317 4.07878 8.98244 4.24141L24.3022 11.9066C24.5275 12.0213 24.6701 12.2519 24.6701 12.5038V19.8358C24.6701 20.2037 24.3715 20.5023 24.0036 20.5023Z" fill="#1B5E37"/>
</svg>
